# xmcd
#
# Track frame offsets:
#	150
#	17979
#	36493
#	53910
#	75822
#	95304
#	111991
#	132465
#	153045
#	181562
#
# Disc length: 2774 seconds
# Revision: 0
# Processed by: cddbd v1.5.2PL0 Copyright (c) Steve Scherf et al.
# Submitted via: dBpowerAMP V12.0
#
DISCID=710ad40a
DTITLE=Contenders, The - Meet The Contenders
DYEAR=2014
DGENRE=Alt Country
TTITLE0=The Contender
TTITLE1=Maybe, Katy
TTITLE2=Lincoln, 1958
TTITLE3=Back In Time
TTITLE4=Long Way Down
TTITLE5=Never Takes Too Long
TTITLE6=White Whale
TTITLE7=Sometimes
TTITLE8=Oogly Boogly
TTITLE9=River Prayer
EXTD=
EXTT0=
EXTT1=
EXTT2=
EXTT3=
EXTT4=
EXTT5=
EXTT6=
EXTT7=
EXTT8=
EXTT9=
PLAYORDER=
